HIERARCHY
ROOT Hips
{
	OFFSET 0.000000 0.000000 0.000000
	CHANNELS 6 Xposition Yposition Zposition Zrotation Yrotation Xrotation 
	JOINT LHipJoint
	{
		OFFSET 0.000000 0.000000 0.000000
		CHANNELS 3 Zrotation Yrotation Xrotation
		JOINT LeftUpLeg
		{
			OFFSET 1.363060 -1.794630 0.839290
			CHANNELS 3 Zrotation Yrotation Xrotation
			JOINT LeftLeg
			{
				OFFSET 2.448110 -6.726130 0.000000
				CHANNELS 3 Zrotation Yrotation Xrotation
				JOINT LeftFoot
				{
					OFFSET 2.562200 -7.039590 0.000000
					CHANNELS 3 Zrotation Yrotation Xrotation
					JOINT LeftToeBase
					{
						OFFSET 0.157640 -0.433110 2.322550
						CHANNELS 3 Zrotation Yrotation Xrotation
						End Site
						{
							OFFSET 0.000000 0.000000 0.000000
						}
					}
				}
			}
		}
	}
	JOINT RHipJoint
	{
		OFFSET 0.000000 0.000000 0.000000
		CHANNELS 3 Zrotation Yrotation Xrotation
		JOINT RightUpLeg
		{
			OFFSET -1.305520 -1.794630 0.839290
			CHANNELS 3 Zrotation Yrotation Xrotation
			JOINT RightLeg
			{
				OFFSET -2.542530 -6.985550 0.000000
				CHANNELS 3 Zrotation Yrotation Xrotation
				JOINT RightFoot
				{
					OFFSET -2.568260 -7.056230 0.000000
					CHANNELS 3 Zrotation Yrotation Xrotation
					JOINT RightToeBase
					{
						OFFSET -0.164730 -0.452590 2.363150
						CHANNELS 3 Zrotation Yrotation Xrotation
						End Site
						{
							OFFSET 0.000000 0.000000 0.000000
						}
					}
				}
			}
		}
	}
	JOINT LowerBack
	{
		OFFSET 0.000000 0.000000 0.000000
		CHANNELS 3 Zrotation Yrotation Xrotation
		JOINT Spine
		{
			OFFSET 0.028270 2.035590 -0.193380
			CHANNELS 3 Zrotation Yrotation Xrotation
			JOINT Spine1
			{
				OFFSET 0.056720 2.048850 -0.042750
				CHANNELS 3 Zrotation Yrotation Xrotation
				JOINT Neck
				{
					OFFSET 0.000000 0.000000 0.000000
					CHANNELS 3 Zrotation Yrotation Xrotation
					JOINT Neck1
					{
						OFFSET -0.054170 1.746240 0.172020
						CHANNELS 3 Zrotation Yrotation Xrotation
						JOINT Head
						{
							OFFSET 0.104070 1.761360 -0.123970
							CHANNELS 3 Zrotation Yrotation Xrotation
							End Site
							{
								OFFSET 0.000000 0.000000 0.000000
							}
						}
					}
				}
				JOINT LeftShoulder
				{
					OFFSET 0.000000 0.000000 0.000000
					CHANNELS 3 Zrotation Yrotation Xrotation
					JOINT LeftArm
					{
						OFFSET 3.362410 1.200890 -0.311210
						CHANNELS 3 Zrotation Yrotation Xrotation
						JOINT LeftForeArm
						{
							OFFSET 4.983000 -0.000000 -0.000000
							CHANNELS 3 Zrotation Yrotation Xrotation
							JOINT LeftHand
							{
								OFFSET 3.483560 -0.000000 -0.000000
								CHANNELS 3 Zrotation Yrotation Xrotation
								JOINT LeftFingerBase
								{
									OFFSET 0.000000 0.000000 0.000000
									CHANNELS 3 Zrotation Yrotation Xrotation
									JOINT LeftHandIndex1
									{
										OFFSET 0.715260 -0.000000 -0.000000
										CHANNELS 3 Zrotation Yrotation Xrotation
										End Site
										{
											OFFSET 0.000000 0.000000 0.000000
										}
									}
								}
								JOINT LThumb
								{
									OFFSET 0.000000 0.000000 0.000000
									CHANNELS 3 Zrotation Yrotation Xrotation
									End Site
									{
										OFFSET 0.000000 0.000000 0.000000
									}
								}
							}
						}
					}
				}
				JOINT RightShoulder
				{
					OFFSET 0.000000 0.000000 0.000000
					CHANNELS 3 Zrotation Yrotation Xrotation
					JOINT RightArm
					{
						OFFSET -3.136600 1.374050 -0.404650
						CHANNELS 3 Zrotation Yrotation Xrotation
						JOINT RightForeArm
						{
							OFFSET -5.241900 -0.000000 -0.000000
							CHANNELS 3 Zrotation Yrotation Xrotation
							JOINT RightHand
							{
								OFFSET -3.444170 -0.000000 -0.000000
								CHANNELS 3 Zrotation Yrotation Xrotation
								JOINT RightFingerBase
								{
									OFFSET 0.000000 0.000000 0.000000
									CHANNELS 3 Zrotation Yrotation Xrotation
									JOINT RightHandIndex1
									{
										OFFSET -0.622530 -0.000000 -0.000000
										CHANNELS 3 Zrotation Yrotation Xrotation
										End Site
										{
											OFFSET 0.000000 0.000000 0.000000
										}
									}
								}
								JOINT RThumb
								{
									OFFSET 0.000000 0.000000 0.000000
									CHANNELS 3 Zrotation Yrotation Xrotation
									End Site
									{
										OFFSET 0.000000 0.000000 0.000000
									}
								}
							}
						}
					}
				}
			}
		}
	}
}
MOTION
Frames: 7
Frame Time: 0.008333
0.542317 17.785940 -14.025816 -2.723896 -1.492860 6.012009 -1.436420 0.157077 1.001306 -13.690667 2.068428 -13.865677 -0.264933 6.227838 17.247807 -0.505672 4.119309 -1.233087 0.001000 -0.206400 -0.567100 -0.637988 -0.460560 0.020285 20.298880 2.072576 -11.910697 -0.210810 -6.487062 18.419777 -0.187285 -0.526769 -4.373090 -0.280000 -3.403400 9.403900 1.865588 -0.244269 -2.593878 1.499049 -0.442297 -2.210209 1.038558 -0.549952 7.402808 -3.706698 -0.925797 -10.633689 3.420361 -0.641784 30.305420 0.784300 0.173300 11.852400 9.176829 5.833912 0.416612 -96.006440 -1.561636 27.254041 6.672657 -15.675232 -0.879533 -0.134927 -0.755551 -4.945118 25.570609 -4.543553 -1.791700 -7.125000 0.000000 0.000000 -0.643600 25.856400 0.298500 -8.232119 -4.878144 0.063187 93.318887 0.045858 8.731902 -9.288539 20.972602 -1.965004 0.732745 0.982260 31.650868 -21.354767 -23.730689 9.445500 7.125000 0.000000 0.000000 8.890100 -56.396300 -2.498100
0.541454 17.786126 -14.026019 -2.713326 -1.491706 6.042892 -1.436591 0.153696 0.997526 -13.698597 2.059396 -13.892145 -0.266214 6.226649 17.242393 -0.505066 4.116928 -1.227823 0.001000 -0.202191 -0.555456 -0.637743 -0.457875 0.018262 20.287723 2.091641 -11.945154 -0.211835 -6.492707 18.432266 -0.186823 -0.532287 -4.385245 -0.281077 -3.409618 9.421351 1.847391 -0.242582 -2.576055 1.497113 -0.438434 -2.203401 1.046123 -0.548931 7.420322 -3.724260 -0.923719 -10.631371 3.422508 -0.635741 30.245209 0.787956 0.173633 11.823167 9.172598 5.848807 0.419171 -95.907780 -1.221963 27.218356 6.700130 -15.745745 -0.888496 -0.131209 -0.759823 -5.265042 25.584457 -4.501764 -1.770884 -7.125000 0.000000 0.000000 -0.631634 25.906597 0.292218 -8.228272 -4.894524 0.065205 93.223822 -0.316539 8.542909 -9.286003 20.989623 -1.966986 0.732990 0.985453 31.608567 -21.362669 -23.683230 9.433615 7.125000 0.000000 0.000000 8.862691 -56.352443 -2.480868
0.540506 17.786329 -14.026104 -2.702494 -1.485853 6.074113 -1.436482 0.150171 0.993319 -13.707038 2.048753 -13.919594 -0.267316 6.226406 17.239389 -0.504111 4.112877 -1.224989 0.001000 -0.202988 -0.557796 -0.637590 -0.454994 0.015955 20.275858 2.110898 -11.980130 -0.213706 -6.500456 18.450826 -0.186830 -0.536534 -4.405042 -0.282855 -3.420482 9.451657 1.831683 -0.243970 -2.557441 1.494739 -0.438505 -2.195224 1.048405 -0.549757 7.443992 -3.727652 -0.924777 -10.640573 3.409667 -0.631175 30.185314 0.782179 0.173316 11.797356 9.167963 5.865586 0.421542 -95.806332 -0.869173 27.150804 6.717341 -15.797501 -0.893626 -0.130220 -0.763933 -5.546695 25.628449 -4.546092 -1.794013 -7.125000 0.000000 0.000000 -0.596767 25.860283 0.276723 -8.223735 -4.911614 0.067520 93.129859 -0.690961 8.329946 -9.274581 20.994038 -1.966352 0.734317 0.986737 31.603082 -21.383524 -23.573608 9.406357 7.125000 0.000000 0.000000 8.792592 -56.246803 -2.438508
0.539627 17.786395 -14.026375 -2.692025 -1.473750 6.105324 -1.435878 0.146252 0.988481 -13.715073 2.037062 -13.951537 -0.267574 6.228910 17.244224 -0.501761 4.102602 -1.226154 0.001000 -0.202596 -0.556713 -0.637591 -0.451800 0.013386 20.265204 2.127187 -12.019583 -0.216433 -6.510896 18.476837 -0.186792 -0.542380 -4.430103 -0.283747 -3.426030 9.467195 1.819685 -0.247889 -2.536561 1.491955 -0.441984 -2.186086 1.045134 -0.551797 7.470594 -3.722395 -0.928504 -10.649921 3.389016 -0.629730 30.123534 0.770901 0.171868 11.770553 9.163030 5.883633 0.424425 -95.703116 -0.502565 27.036064 6.721460 -15.825269 -0.895084 -0.130525 -0.767707 -5.752325 25.653525 -4.603815 -1.822468 -7.125000 0.000000 0.000000 -0.576140 25.799256 0.267983 -8.219112 -4.929563 0.070051 93.038222 -1.084131 8.109320 -9.261146 20.996676 -1.964790 0.735681 0.988486 31.612461 -21.400194 -23.479880 9.382572 7.125000 0.000000 0.000000 8.735095 -56.157125 -2.403292
0.538764 17.786039 -14.026799 -2.681989 -1.456115 6.134974 -1.434701 0.141822 0.982899 -13.722649 2.024721 -13.989505 -0.266423 6.236014 17.262032 -0.497654 4.083721 -1.233959 0.001000 -0.200585 -0.551026 -0.637903 -0.448334 0.010585 20.255972 2.137727 -12.064438 -0.220292 -6.524069 18.510532 -0.186491 -0.550178 -4.457658 -0.283165 -3.422392 9.457010 1.810314 -0.253606 -2.509809 1.489249 -0.447525 -2.176060 1.040108 -0.554684 7.497244 -3.718920 -0.931482 -10.653843 3.370538 -0.628023 30.058461 0.760936 0.170496 11.740533 9.157893 5.902078 0.428124 -95.601263 -0.124240 26.877119 6.716263 -15.836387 -0.894732 -0.130628 -0.771202 -5.865045 25.637673 -4.610802 -1.823114 -7.125000 0.000000 0.000000 -0.586653 25.795695 0.272940 -8.214787 -4.948178 0.072833 92.950597 -1.487485 7.863051 -9.247557 20.999326 -1.963069 0.735799 0.992072 31.642844 -21.375060 -23.447028 9.359477 7.125000 0.000000 0.000000 8.751384 -56.121459 -2.400287
0.538021 17.785358 -14.027495 -2.672756 -1.433984 6.161709 -1.432975 0.136852 0.976619 -13.729977 2.011738 -14.034335 -0.263253 6.249096 17.296423 -0.492157 4.058381 -1.249217 0.001000 -0.199958 -0.549500 -0.638708 -0.444625 0.007665 20.248166 2.143948 -12.114563 -0.225413 -6.540597 18.553791 -0.185802 -0.560160 -4.487039 -0.281317 -3.411466 9.426409 1.803486 -0.260739 -2.475334 1.487236 -0.455103 -2.165824 1.036777 -0.558396 7.520224 -3.727314 -0.932288 -10.646792 3.360296 -0.624348 29.986682 0.757179 0.169263 11.704326 9.152312 5.920331 0.432580 -95.500566 0.266521 26.708957 6.701454 -15.830506 -0.891810 -0.129883 -0.774783 -5.922393 25.605445 -4.550998 -1.789975 -7.125000 0.000000 0.000000 -0.609565 25.867003 0.282522 -8.210791 -4.967435 0.075977 92.862701 -1.903805 7.580830 -9.231394 20.998082 -1.960557 0.735356 0.996198 31.695999 -21.323705 -23.429237 9.328773 7.125000 0.000000 0.000000 8.803336 -56.095613 -2.409176
0.537446 17.784104 -14.028513 -2.666704 -1.403754 6.185643 -1.430543 0.131153 0.969263 -13.733809 1.995816 -14.089387 -0.257617 6.269669 17.351668 -0.484970 4.025424 -1.270132 0.001000 -0.204848 -0.562832 -0.640315 -0.440478 0.004484 20.244280 2.148407 -12.170206 -0.232335 -6.562120 18.611169 -0.185041 -0.571861 -4.521925 -0.279785 -3.402065 9.400215 1.801290 -0.271250 -2.430581 1.486589 -0.466886 -2.154915 1.035416 -0.564263 7.541624 -3.738255 -0.932055 -10.644714 3.348729 -0.617764 29.913636 0.753724 0.168951 11.669394 9.146644 5.939254 0.437102 -95.403983 0.673648 26.534341 6.682976 -15.818463 -0.887678 -0.128912 -0.778632 -5.932497 25.585185 -4.455885 -1.740589 -7.125000 0.000000 0.000000 -0.623562 25.977736 0.287436 -8.206429 -4.986979 0.079073 92.772836 -2.331324 7.265737 -9.210748 20.990163 -1.956958 0.734715 0.999836 31.763074 -21.257221 -23.384067 9.281217 7.125000 0.000000 0.000000 8.859108 -56.038157 -2.412206
